<svg width="43" height="42" viewBox="0 0 43 42" fill="none" xmlns="http://www.w3.org/2000/svg">
<path d="M26.7622 26.5986C26.8198 26.5693 26.871 26.5289 26.913 26.4798C26.9551 26.4306 26.987 26.3737 27.007 26.3122C27.027 26.2508 27.0347 26.186 27.0296 26.1215C27.0246 26.0571 27.0069 25.9943 26.9776 25.9367C26.9483 25.8791 26.9079 25.8278 26.8588 25.7858C26.8096 25.7438 26.7527 25.7119 26.6912 25.6919C26.6298 25.6719 26.565 25.6642 26.5005 25.6692C26.4361 25.6743 26.3733 25.6919 26.3157 25.7213L24.4385 26.6765V27.781L26.7622 26.5986Z" fill="black"/>
<path d="M16.9453 30.4896C16.8874 30.5188 16.8359 30.5591 16.7937 30.6082C16.7515 30.6573 16.7194 30.7143 16.6992 30.7759C16.6791 30.8374 16.6713 30.9024 16.6763 30.9669C16.6813 31.0315 16.699 31.0945 16.7283 31.1522C16.7577 31.2099 16.7982 31.2613 16.8474 31.3034C16.8967 31.3454 16.9538 31.3773 17.0154 31.3973C17.0771 31.4172 17.142 31.4248 17.2066 31.4196C17.2711 31.4144 17.334 31.3965 17.3917 31.3669L18.86 30.6196V29.5149L16.9453 30.4896Z" fill="black"/>
<path d="M16.9362 33.4375C16.8785 33.4668 16.8272 33.5071 16.7852 33.5563C16.7432 33.6054 16.7112 33.6624 16.6912 33.7238C16.6712 33.7853 16.6635 33.8501 16.6685 33.9146C16.6735 33.9791 16.6912 34.0419 16.7205 34.0995C16.7498 34.1572 16.7902 34.2085 16.8393 34.2505C16.8885 34.2925 16.9454 34.3245 17.0069 34.3445C17.0683 34.3645 17.1332 34.3722 17.1976 34.3672C17.2621 34.3622 17.3249 34.3445 17.3826 34.3152L18.8604 33.5628V32.4583L16.9362 33.4375Z" fill="black"/>
<path d="M26.7529 29.5465C26.8693 29.4873 26.9574 29.3843 26.9978 29.2601C27.0383 29.1359 27.0277 29.0008 26.9685 28.8844C26.9093 28.768 26.8063 28.6799 26.6821 28.6394C26.558 28.599 26.4228 28.6095 26.3064 28.6688L24.4385 29.6197V30.7242L26.7529 29.5465Z" fill="black"/>
<path d="M16.9267 36.3853C16.8689 36.4145 16.8174 36.4548 16.7752 36.5039C16.7329 36.5531 16.7008 36.61 16.6807 36.6716C16.6605 36.7332 16.6527 36.7981 16.6577 36.8627C16.6627 36.9273 16.6804 36.9902 16.7098 37.0479C16.7391 37.1057 16.7796 37.157 16.8289 37.1991C16.8782 37.2411 16.9352 37.2731 16.9969 37.293C17.0585 37.313 17.1235 37.3205 17.188 37.3153C17.2526 37.3101 17.3155 37.2922 17.3731 37.2627L18.8603 36.5059V35.4014L16.9267 36.3853Z" fill="black"/>
<path d="M26.7436 32.4946C26.8599 32.4354 26.9479 32.3324 26.9883 32.2082C27.0287 32.0841 27.0182 31.949 26.959 31.8327C26.8998 31.7163 26.7968 31.6283 26.6726 31.5879C26.5485 31.5475 26.4134 31.5581 26.2971 31.6173L24.4385 32.5631V33.6676L26.7436 32.4946Z" fill="black"/>
<path d="M24.4385 32.563V30.7244L18.8604 33.5628V35.4015L24.4385 32.563Z" fill="black"/>
<path d="M18.8604 37.5554L21.6156 38.9484L24.4385 37.5524V33.6675L18.8604 36.5059V37.5554Z" fill="black"/>
<path d="M9.76033 15.0993C13.5843 17.1238 13.6978 17.5997 13.4358 20.7162C13.43 20.7853 13.4241 20.856 13.418 20.9282H29.7408C29.7349 20.8571 29.7291 20.7876 29.7234 20.7196C29.4617 17.6046 29.5752 17.1286 33.3984 15.0995C34.4677 14.5319 35.2899 13.2779 35.6542 11.659C36.0212 10.0286 35.8897 8.23005 35.2933 6.72445C34.0513 3.58823 31.1705 2.38073 27.3893 3.41129C25.9242 3.8107 25.1784 4.27311 24.3149 4.80861C23.793 5.14319 23.2533 5.44918 22.6982 5.72523C24.142 6.32651 25.3218 6.51273 26.3616 6.30945C26.4897 6.28443 26.6225 6.31133 26.7308 6.38424C26.8391 6.45714 26.914 6.57008 26.939 6.6982C26.964 6.82632 26.9371 6.95913 26.8642 7.06742C26.7913 7.17571 26.6784 7.2506 26.5502 7.27562C25.6199 7.45707 24.0664 7.54099 21.3287 6.17951C21.0571 6.04441 20.6904 5.83269 20.2659 5.5875C18.8545 4.77235 16.7214 3.54057 15.0182 3.31466C9.8066 2.62379 8.12758 6.04203 7.64746 7.54386C7.1921 8.99703 7.15845 10.5496 7.55041 12.0211C7.94818 13.4623 8.73314 14.5555 9.76033 15.0993ZM19.7304 17.9326C19.9612 17.6562 20.2503 17.4341 20.5769 17.2824C20.9035 17.1306 21.2597 17.053 21.6198 17.0549C21.98 17.0569 22.3352 17.1384 22.6602 17.2937C22.9852 17.449 23.2718 17.6742 23.4996 17.9531C23.5779 18.0553 23.6131 18.1841 23.5976 18.3118C23.582 18.4396 23.5171 18.5562 23.4166 18.6367C23.3162 18.7172 23.1882 18.7551 23.0601 18.7423C22.932 18.7295 22.814 18.6671 22.7314 18.5684C22.5953 18.4037 22.4246 18.2709 22.2315 18.1794C22.0384 18.0879 21.8276 18.04 21.6139 18.0389C21.4002 18.0378 21.1889 18.0837 20.9949 18.1732C20.8009 18.2627 20.6289 18.3938 20.4911 18.557C20.4501 18.607 20.3996 18.6484 20.3426 18.6788C20.2856 18.7093 20.2231 18.7282 20.1588 18.7345C20.0944 18.7408 20.0295 18.7344 19.9677 18.7156C19.9058 18.6968 19.8483 18.666 19.7983 18.625C19.7484 18.5839 19.707 18.5335 19.6766 18.4765C19.6461 18.4194 19.6272 18.357 19.6209 18.2927C19.6146 18.2283 19.621 18.1634 19.6398 18.1015C19.6586 18.0397 19.6894 17.9822 19.7304 17.9322V17.9326Z" fill="black"/>
<path d="M24.4385 27.781L18.8604 30.6195V32.4582L24.4385 29.6197V27.781Z" fill="black"/>
<path d="M24.4385 24.5076H18.8604V29.515L24.4385 26.6766V24.5076Z" fill="black"/>
<path d="M17.2197 21.9128H26.0791V23.5234H17.2197V21.9128Z" fill="black"/>
</svg>
