<svg width="73" height="72" viewBox="0 0 73 72" fill="none" xmlns="http://www.w3.org/2000/svg">
<path d="M33.7106 23.8157C33.8792 23.8158 34.0439 23.7651 34.1833 23.6703L38.8197 20.5272L37.8727 19.1304L33.2364 22.2736C33.087 22.375 32.974 22.5216 32.914 22.6919C32.8541 22.8623 32.8504 23.0474 32.9035 23.22C32.9566 23.3926 33.0636 23.5436 33.2089 23.6508C33.3542 23.7581 33.53 23.8159 33.7106 23.8157Z" fill="black"/>
<path d="M54.0386 40.4065L52.8819 41.5633C52.8035 41.6416 52.7414 41.7346 52.699 41.837C52.6566 41.9394 52.6348 42.0491 52.6348 42.1599C52.6348 42.2707 52.6566 42.3805 52.699 42.4828C52.7414 42.5852 52.8036 42.6782 52.8819 42.7565C52.9603 42.8349 53.0533 42.897 53.1557 42.9394C53.2581 42.9818 53.3678 43.0036 53.4786 43.0036C53.5894 43.0036 53.6991 42.9818 53.8015 42.9394C53.9038 42.897 53.9969 42.8348 54.0752 42.7565L55.0679 41.7638L54.3327 41.0288L54.0386 40.4065Z" fill="black"/>
<path d="M57.9864 37.167L58.8251 38.0056L60.0158 36.815C60.0942 36.7366 60.1563 36.6436 60.1987 36.5412C60.2411 36.4389 60.263 36.3291 60.263 36.2183C60.263 36.1075 60.2412 35.9978 60.1988 35.8954C60.1564 35.7931 60.0942 35.7 60.0159 35.6217C59.9375 35.5433 59.8445 35.4812 59.7421 35.4388C59.6398 35.3963 59.5301 35.3745 59.4192 35.3745C59.3084 35.3745 59.1987 35.3963 59.0963 35.4387C58.994 35.4811 58.901 35.5433 58.8226 35.6216L57.6904 36.7538L57.8822 37.0401C57.9128 37.0857 57.9477 37.1282 57.9864 37.167Z" fill="black"/>
<path d="M50.3956 37.4923C50.2395 37.651 50.1524 37.8649 50.1533 38.0875C50.1542 38.3101 50.2431 38.5233 50.4004 38.6807C50.5578 38.838 50.771 38.9269 50.9936 38.9278C51.2162 38.9287 51.4301 38.8416 51.5888 38.6855L52.6997 37.5746L51.9335 35.9539L50.3956 37.4923Z" fill="black"/>
<path d="M57.2328 33.0418C57.391 32.8836 57.4799 32.6689 57.4799 32.4451C57.4799 32.2213 57.391 32.0067 57.2328 31.8485C57.0746 31.6902 56.8599 31.6013 56.6361 31.6013C56.4123 31.6013 56.1977 31.6902 56.0395 31.8485L55.0596 32.8285L56.0172 34.2574L57.2328 33.0418Z" fill="black"/>
<path d="M55.0427 28.6736C55.2009 28.5154 55.2898 28.3008 55.2898 28.077C55.2898 27.8532 55.201 27.6386 55.0427 27.4803C54.8845 27.3221 54.6699 27.2332 54.4461 27.2332C54.2223 27.2331 54.0077 27.322 53.8495 27.4803L52.4277 28.9021L53.3854 30.3309L55.0427 28.6736Z" fill="black"/>
<path d="M48.4034 32.9265C48.2452 33.0847 48.1563 33.2993 48.1563 33.5231C48.1562 33.7469 48.2451 33.9615 48.4034 34.1198C48.5616 34.278 48.7762 34.3669 49 34.3669C49.2238 34.3669 49.4384 34.2781 49.5966 34.1198L50.5951 33.1214L49.8289 31.501L48.4034 32.9265Z" fill="black"/>
<path d="M52.1605 24.9993C52.2388 24.9209 52.301 24.8279 52.3434 24.7256C52.3858 24.6232 52.4077 24.5135 52.4077 24.4027C52.4077 24.2919 52.3858 24.1821 52.3435 24.0798C52.3011 23.9774 52.2389 23.8844 52.1606 23.806C52.0822 23.7277 51.9892 23.6655 51.8868 23.6231C51.7845 23.5807 51.6747 23.5588 51.5639 23.5588C51.4531 23.5588 51.3434 23.5807 51.241 23.623C51.1387 23.6654 51.0456 23.7276 50.9673 23.8059L49.7969 24.9765L50.7545 26.4054L52.1605 24.9993Z" fill="black"/>
<path d="M46.4121 28.3604C46.3338 28.4388 46.2716 28.5318 46.2292 28.6342C46.1869 28.7366 46.165 28.8463 46.165 28.9571C46.165 29.0679 46.1869 29.1776 46.2293 29.28C46.2717 29.3823 46.3339 29.4754 46.4122 29.5537C46.4906 29.6321 46.5836 29.6942 46.686 29.7366C46.7883 29.779 46.8981 29.8008 47.0089 29.8008C47.1197 29.8008 47.2294 29.779 47.3318 29.7366C47.4341 29.6942 47.5271 29.632 47.6055 29.5536L48.4897 28.6694L47.7238 27.0488L46.4121 28.3604Z" fill="black"/>
<path d="M49.3765 21.2253C49.5347 21.067 49.6236 20.8524 49.6236 20.6286C49.6236 20.4049 49.5347 20.1902 49.3764 20.032C49.2182 19.8738 49.0036 19.7849 48.7798 19.7849C48.556 19.7849 48.3414 19.8738 48.1832 20.0321L47.165 21.0503L48.1227 22.4792L49.3765 21.2253Z" fill="black"/>
<path d="M44.421 23.7948C44.3416 23.8729 44.2784 23.966 44.2352 24.0686C44.1919 24.1713 44.1694 24.2814 44.169 24.3928C44.1685 24.5042 44.1901 24.6146 44.2325 24.7176C44.2749 24.8206 44.3373 24.9141 44.4161 24.9929C44.4948 25.0716 44.5884 25.134 44.6914 25.1764C44.7944 25.2189 44.9047 25.2405 45.0161 25.24C45.1275 25.2396 45.2377 25.2171 45.3403 25.1738C45.443 25.1306 45.536 25.0674 45.6141 24.988L46.3851 24.2171L45.6188 22.5967L44.421 23.7948Z" fill="black"/>
<path d="M44.4395 20.1014L45.6192 22.5968L47.1655 21.0505L45.8764 19.1272L44.4395 20.1014Z" fill="black"/>
<path d="M47.7245 27.049L49.7973 24.9763L48.1237 22.4792L46.3857 24.2171L47.7245 27.049Z" fill="black"/>
<path d="M38.7803 18.9631L39.586 18.4172L40.2105 19.3389L39.4048 19.8849L38.7803 18.9631Z" fill="black"/>
<path d="M40.2373 16.3682L44.6375 13.3869L46.7546 16.5116L42.3544 19.4929L40.2373 16.3682Z" fill="black"/>
<path d="M54.0389 40.4064L57.6911 36.7543L56.0175 34.2573L52.7002 37.5745L54.0389 40.4064Z" fill="black"/>
<path d="M55.0576 41.7656L58.8147 38.0086L66.037 45.2309L62.2799 48.9879L55.0576 41.7656Z" fill="black"/>
<path d="M51.9335 35.9539L55.0592 32.8283L53.3856 30.3311L50.5947 33.1219L51.9335 35.9539Z" fill="black"/>
<path d="M65.1934 48.4607L65.9804 47.6737L66.6781 48.3714L65.8911 49.1584L65.1934 48.4607Z" fill="black"/>
<path d="M49.828 31.5015L52.4273 28.9023L50.7537 26.4053L48.4893 28.6696L49.828 31.5015Z" fill="black"/>
<path d="M67.4902 48.763C67.3315 48.6069 67.1176 48.5199 66.895 48.5208C66.6724 48.5217 66.4592 48.6105 66.3018 48.7679C66.1444 48.9253 66.0556 49.1385 66.0547 49.3611C66.0538 49.5837 66.1409 49.7976 66.297 49.9562L68.9704 52.6298C69.1286 52.788 69.3433 52.8769 69.567 52.8769C69.7908 52.8769 70.0054 52.788 70.1637 52.6297C70.3219 52.4715 70.4108 52.2569 70.4108 52.0331C70.4107 51.8093 70.3218 51.5947 70.1636 51.4365L67.4902 48.763Z" fill="black"/>
<path d="M6.1203 35.3436C8.72636 36.7233 10.0032 37.5233 10.6801 38.6168C11.3912 39.7654 11.2884 40.9872 11.1181 43.0113C11.0924 43.3175 11.0648 43.6457 11.0378 43.9985C10.6633 48.8961 11.3613 55.2637 14.4409 58.4618C14.5291 58.5141 14.6233 58.5556 14.7213 58.5855C14.8263 58.6298 14.9413 58.6445 15.054 58.628C15.1667 58.6115 15.2727 58.5645 15.3606 58.4921C15.4485 58.4196 15.5148 58.3245 15.5525 58.2171C15.5902 58.1096 15.5978 57.9939 15.5744 57.8824C15.57 57.8596 15.5666 57.8366 15.5641 57.8135C15.5148 57.344 14.4117 46.2444 19.367 40.2126C19.6681 39.8516 20.0453 39.5616 20.4716 39.3634C20.8978 39.1653 21.3627 39.0639 21.8328 39.0665C22.3028 39.069 22.7665 39.1756 23.1906 39.3784C23.6147 39.5813 23.9886 39.8754 24.2857 40.2397C29.1444 46.3022 28.0532 57.3458 28.0044 57.8129C28.002 57.8363 27.9985 57.8594 27.9942 57.8824C27.9687 58.0119 27.9835 58.1461 28.0364 58.267C28.1089 58.4106 28.2317 58.5224 28.3813 58.5812C28.531 58.64 28.6971 58.6416 28.8478 58.5857C28.9459 58.5557 29.04 58.5141 29.1282 58.4619C32.2079 55.264 32.9061 48.8962 32.5314 43.9987C32.5045 43.6471 32.4771 43.3207 32.4515 43.016C32.2813 40.991 32.1787 39.7688 32.8897 38.6202C33.5654 37.5286 34.842 36.7274 37.448 35.3436C39.023 34.5076 40.171 32.511 40.5189 30.0028C40.5792 29.5747 40.5198 29.1382 40.3472 28.7417C40.1747 28.3453 39.8956 28.0044 39.5411 27.7569L38.8706 27.2859C38.7552 27.2053 38.6135 27.1714 38.474 27.1911C38.3346 27.2107 38.2078 27.2825 38.1192 27.392L37.7882 27.8027C37.5291 28.1243 37.1862 28.3681 36.7973 28.5073C36.4084 28.6464 35.9887 28.6754 35.5843 28.5912C35.18 28.5069 34.8068 28.3126 34.5059 28.0298C34.2049 27.7469 33.9879 27.3864 33.8788 26.9881L33.5323 25.7225C33.4962 25.5901 33.4123 25.4759 33.2969 25.4018C33.1814 25.3277 33.0426 25.299 32.9073 25.3213C32.5395 25.3815 32.1625 25.3491 31.8104 25.2271C31.4582 25.1051 31.1421 24.8972 30.8904 24.6223C30.6388 24.3474 30.4597 24.0141 30.3692 23.6526C30.2787 23.291 30.2797 22.9127 30.3722 22.5517L30.726 21.17C30.7632 21.0263 30.7432 20.8737 30.6704 20.7444C30.5975 20.615 30.4774 20.5189 30.3352 20.4762C29.6528 20.2679 28.9208 20.2894 28.2517 20.5373C27.1286 20.9608 26.3872 21.4205 25.5288 21.9527C25.0024 22.2791 24.4309 22.6334 23.7306 22.9956C25.445 23.6592 26.8657 23.8543 28.1218 23.6092C28.2305 23.5879 28.3424 23.5883 28.451 23.6103C28.5596 23.6323 28.6628 23.6755 28.7547 23.7374C28.8467 23.7992 28.9255 23.8786 28.9867 23.971C29.048 24.0633 29.0904 24.1668 29.1116 24.2756C29.1329 24.3843 29.1325 24.4962 29.1105 24.6048C29.0885 24.7134 29.0453 24.8166 28.9834 24.9085C28.9216 25.0004 28.8422 25.0793 28.7498 25.1405C28.6575 25.2017 28.554 25.2442 28.4452 25.2654C25.8003 25.7815 23.1385 24.6696 21.3664 23.7889C20.9991 23.6061 20.5086 23.3227 19.9397 22.9943C18.0713 21.9155 15.2478 20.2849 13.015 19.9888C6.21016 19.0868 4.02035 23.5397 3.39485 25.4965C2.14947 29.3929 3.39766 33.9021 6.1203 35.3436Z" fill="black"/>
</svg>
