<svg width="47" height="46" viewBox="0 0 47 46" fill="none" xmlns="http://www.w3.org/2000/svg">
<path d="M42.1912 14.7919C42.687 12.5891 42.5091 10.1589 41.7033 8.124C40.0178 3.86747 36.1138 2.22674 30.9928 3.62283C29.0171 4.16135 28.0131 4.78379 26.8505 5.50469C26.0831 5.99875 25.2855 6.444 24.4622 6.83779C26.526 7.73318 28.2005 8.01681 29.6731 7.72949C29.7426 7.71593 29.814 7.71618 29.8834 7.73023C29.9528 7.74428 30.0188 7.77187 30.0775 7.8114C30.1362 7.85094 30.1866 7.90165 30.2257 7.96065C30.2648 8.01965 30.2919 8.08578 30.3055 8.15526C30.3191 8.22474 30.3188 8.29622 30.3048 8.3656C30.2907 8.43499 30.2631 8.50092 30.2236 8.55965C30.1841 8.61837 30.1333 8.66874 30.0743 8.70786C30.0153 8.74698 29.9492 8.77411 29.8797 8.78767C28.6528 9.02711 26.602 9.13681 22.9737 7.3322C22.6138 7.15315 22.125 6.87095 21.559 6.54409C19.6633 5.44962 16.7993 3.79541 14.4985 3.49031C11.8364 3.1374 9.58097 3.55571 7.79506 4.73464C6.26511 5.74449 5.13047 7.29788 4.51388 9.22683C3.90492 11.172 3.85421 13.2491 4.36752 15.2217H42.0846C42.1228 15.0808 42.1583 14.9375 42.1912 14.7919Z" fill="white"/>
<path d="M39.1142 19.4715C40.22 18.8846 41.1312 17.764 41.7234 16.3H38.4612V17.4633C38.4612 17.6063 38.4045 17.7434 38.3034 17.8445C38.2023 17.9456 38.0652 18.0024 37.9222 18.0024C37.7792 18.0024 37.6421 17.9456 37.541 17.8445C37.4399 17.7434 37.3831 17.6063 37.3831 17.4633V16.3002H34.7374V17.4635C34.7374 17.6065 34.6806 17.7436 34.5795 17.8447C34.4784 17.9458 34.3413 18.0026 34.1983 18.0026C34.0554 18.0026 33.9183 17.9458 33.8172 17.8447C33.7161 17.7436 33.6593 17.6065 33.6593 17.4635V16.3002H31.0135V17.4635C31.0135 17.6065 30.9567 17.7436 30.8556 17.8447C30.7545 17.9458 30.6174 18.0026 30.4744 18.0026C30.3314 18.0026 30.1943 17.9458 30.0932 17.8447C29.9921 17.7436 29.9353 17.6065 29.9353 17.4635V16.3002H27.2896V17.4635C27.2896 17.6065 27.2328 17.7436 27.1317 17.8447C27.0306 17.9458 26.8935 18.0026 26.7506 18.0026C26.6076 18.0026 26.4705 17.9458 26.3694 17.8447C26.2683 17.7436 26.2115 17.6065 26.2115 17.4635V16.3002H23.5657V17.4635C23.5657 17.6065 23.5089 17.7436 23.4078 17.8447C23.3067 17.9458 23.1696 18.0026 23.0266 18.0026C22.8837 18.0026 22.7466 17.9458 22.6455 17.8447C22.5444 17.7436 22.4876 17.6065 22.4876 17.4635V16.3002H19.8418V17.4635C19.8418 17.6065 19.7851 17.7436 19.684 17.8447C19.5829 17.9458 19.4458 18.0026 19.3028 18.0026C19.1598 18.0026 19.0227 17.9458 18.9216 17.8447C18.8205 17.7436 18.7637 17.6065 18.7637 17.4635V16.3002H16.118V17.4635C16.118 17.6065 16.0612 17.7436 15.9601 17.8447C15.859 17.9458 15.7219 18.0026 15.5789 18.0026C15.436 18.0026 15.2989 17.9458 15.1978 17.8447C15.0967 17.7436 15.0399 17.6065 15.0399 17.4635V16.3002H12.3942V17.4635C12.3942 17.6065 12.3374 17.7436 12.2363 17.8447C12.1352 17.9458 11.9981 18.0026 11.8551 18.0026C11.7121 18.0026 11.575 17.9458 11.4739 17.8447C11.3728 17.7436 11.316 17.6065 11.316 17.4635V16.3002H8.67023V17.4635C8.67023 17.6065 8.61344 17.7436 8.51234 17.8447C8.41125 17.9458 8.27414 18.0026 8.13117 18.0026C7.9882 18.0026 7.85109 17.9458 7.74999 17.8447C7.6489 17.7436 7.59211 17.6065 7.59211 17.4635V16.3002H4.72852C5.32346 17.7557 6.24849 18.8635 7.39687 19.4713C9.90873 20.801 11.2163 21.6151 11.8539 22.6452C12.5138 23.7113 12.4139 24.8989 12.2484 26.8665C12.2226 27.1744 12.1945 27.5044 12.1676 27.8591C11.586 35.4653 13.6011 40.4713 15.6805 42.6204C15.6812 42.6212 15.7618 42.7021 16.0697 42.8079C16.5499 42.973 17.0754 42.7588 17.2657 42.3199C17.3426 42.1419 17.3642 41.9448 17.3275 41.7544C17.3247 41.7398 17.3226 41.7251 17.321 41.7104C17.1384 39.572 17.1422 37.4218 17.3323 35.284C17.7486 30.4928 19.0054 26.7903 21.068 24.2797C21.341 23.9528 21.6828 23.6903 22.0691 23.5109C22.4553 23.3315 22.8765 23.2396 23.3023 23.242C23.7282 23.2443 24.1483 23.3407 24.5326 23.5243C24.9168 23.7079 25.2558 23.9741 25.5252 24.304C27.5479 26.8278 28.7788 30.5301 29.1838 35.3072C29.3691 37.4374 29.3712 39.5796 29.1901 41.7101C29.1886 41.7249 29.1864 41.7398 29.1836 41.7544C29.1469 41.9448 29.1685 42.1419 29.2454 42.3199C29.4357 42.7588 29.9609 42.9735 30.4413 42.8079C30.7493 42.7021 30.8299 42.6212 30.8307 42.6204C32.9104 40.4715 34.9255 35.4653 34.3436 27.8591C34.3167 27.506 34.289 27.1774 34.2633 26.8708C34.0979 24.9024 33.9981 23.7144 34.658 22.6481C35.2988 21.6139 36.5505 20.8322 39.1142 19.4715Z" fill="white"/>
</svg>
