<svg width="47" height="46" viewBox="0 0 47 46" fill="none" xmlns="http://www.w3.org/2000/svg">
<path d="M6.70341 27.2631C6.351 26.7774 6.11364 26.2179 6.00928 25.627C5.52352 25.9793 4.96401 26.2167 4.37305 26.3211C4.72549 26.8068 4.96288 27.3663 5.06727 27.9573C5.55297 27.6049 6.11246 27.3675 6.70341 27.2631Z" fill="white"/>
<path d="M11.9996 20.8235C16.1834 23.0384 16.3076 23.5593 16.0208 26.9688C15.9997 27.2204 15.977 27.4899 15.9548 27.7802C15.4815 33.9705 17.1152 38.0389 18.8019 39.7818C18.888 39.8391 18.9825 39.8827 19.082 39.9108C19.2422 39.9707 19.4189 39.9684 19.5775 39.9044C19.736 39.8404 19.8649 39.7194 19.9387 39.5651C19.9938 39.4375 20.0092 39.2962 19.9829 39.1597C19.98 39.1451 19.9779 39.1305 19.9764 39.1157C19.8263 37.3599 19.8293 35.5943 19.9854 33.839C20.3277 29.8987 21.3634 26.8515 23.0638 24.7818C23.2964 24.503 23.5877 24.2792 23.917 24.1262C24.2462 23.9732 24.6052 23.8949 24.9682 23.8969C25.3312 23.8989 25.6893 23.9811 26.0169 24.1377C26.3444 24.2942 26.6333 24.5213 26.8628 24.8025C28.5301 26.883 29.5443 29.9296 29.8773 33.8582C30.0294 35.6072 30.031 37.3661 29.8823 39.1154C29.8808 39.1302 29.8786 39.145 29.8758 39.1597C29.8495 39.2962 29.8649 39.4375 29.92 39.5651C29.9938 39.7194 30.1226 39.8404 30.2812 39.9044C30.4397 39.9684 30.6165 39.9707 30.7767 39.9108C30.8776 39.883 30.9731 39.8385 31.0593 39.7793C32.7435 38.0389 34.3772 33.9709 33.9039 27.7802C33.8818 27.4916 33.859 27.2232 33.8381 26.9724C33.5518 23.5644 33.6764 23.0436 37.8585 20.8236C39.0708 20.1802 39.9834 18.7468 40.3626 16.891C40.6659 15.3902 40.6012 13.8383 40.1739 12.368C40.0148 12.7236 39.896 13.0958 39.8197 13.4778C39.7952 13.6 39.7292 13.7099 39.6329 13.7888C39.5365 13.8678 39.4158 13.9109 39.2912 13.9109C39.1666 13.9109 39.0459 13.8678 38.9495 13.7888C38.8531 13.7099 38.7871 13.6 38.7626 13.4778C38.5635 12.4728 38.0704 11.5496 37.3459 10.8251C36.6215 10.1007 35.6982 9.60766 34.6932 9.40852C34.571 9.38408 34.4611 9.31806 34.3821 9.22169C34.3031 9.12532 34.2599 9.00455 34.2599 8.87993C34.2599 8.75531 34.3031 8.63454 34.3821 8.53816C34.4611 8.44179 34.571 8.37577 34.6932 8.35133C35.1469 8.2607 35.5864 8.11005 36.0003 7.90337C34.649 7.50806 33.0686 7.55172 31.2854 8.03813C29.6827 8.47504 28.8668 8.98087 27.9221 9.56665C27.3518 9.93222 26.7621 10.2666 26.1557 10.5683C27.733 11.225 29.0242 11.4294 30.1608 11.2075C30.3011 11.1801 30.4466 11.2095 30.5652 11.2894C30.6838 11.3692 30.7658 11.4929 30.7932 11.6332C30.8206 11.7736 30.7912 11.919 30.7113 12.0376C30.6315 12.1562 30.5078 12.2382 30.3674 12.2656C28.2423 12.6804 26.0892 11.7799 24.6546 11.0665C24.3575 10.9186 23.9564 10.687 23.4919 10.4188C21.9478 9.52703 19.6144 8.17955 17.7509 7.93239C12.0497 7.17626 10.213 10.9158 9.68793 12.5588C9.18977 14.1484 9.15294 15.8468 9.58173 17.4565C10.0176 19.0329 10.8766 20.2287 11.9996 20.8235Z" fill="white"/>
<path d="M39.2915 11.7119C39.8986 10.4826 40.8937 9.48746 42.123 8.88034C40.8937 8.27325 39.8986 7.27814 39.2915 6.04883C38.6844 7.27814 37.6893 8.27325 36.46 8.88034C37.6892 9.48746 38.6844 10.4826 39.2915 11.7119Z" fill="white"/>
<path d="M8.6543 36.1704C9.15724 35.2241 9.9316 34.4497 10.8779 33.9468C9.93168 33.4437 9.15734 32.6694 8.6543 31.7231C8.15122 32.6694 7.37689 33.4437 6.43066 33.9468C7.37697 34.4497 8.15133 35.2241 8.6543 36.1704Z" fill="white"/>
</svg>
