<svg width="31" height="42" viewBox="0 0 31 42" fill="none" xmlns="http://www.w3.org/2000/svg">
<g clip-path="url(#clip0)">
<path d="M30.22 9.12185C30.6019 7.39793 30.4649 5.49598 29.8442 3.90347C28.5458 0.572274 25.5384 -0.711773 21.5936 0.380813C20.0716 0.802266 19.2982 1.28939 18.4026 1.85358C17.8115 2.24023 17.197 2.58869 16.5628 2.89688C18.1526 3.59761 19.4426 3.81959 20.577 3.59473C20.6305 3.58411 20.6855 3.58431 20.739 3.5953C20.7924 3.6063 20.8432 3.62789 20.8885 3.65883C20.9337 3.68977 20.9725 3.72946 21.0026 3.77564C21.0328 3.82181 21.0537 3.87356 21.0641 3.92794C21.0746 3.98232 21.0744 4.03825 21.0636 4.09255C21.0527 4.14685 21.0315 4.19846 21.001 4.24441C20.9706 4.29037 20.9315 4.32979 20.8861 4.36041C20.8406 4.39102 20.7897 4.41225 20.7361 4.42287C19.791 4.61025 18.2112 4.6961 15.4162 3.28381C15.139 3.14367 14.7624 2.92282 14.3265 2.66702C12.8661 1.81048 10.6599 0.515883 8.8875 0.277102C6.83683 0.000914633 5.09939 0.32829 3.72365 1.25093C2.54508 2.04124 1.67104 3.25695 1.19605 4.76656C0.726954 6.28887 0.687891 7.9144 1.08331 9.45816H30.1379C30.1673 9.34791 30.1947 9.23581 30.22 9.12185Z" fill="white"/>
<path d="M27.9854 22.8101C28.8376 22.3516 29.5404 21.4753 29.9978 20.3301L8.2387 20.3076L27.4839 21.2379C27.4838 21.3498 27.4399 21.4571 27.362 21.5361C27.284 21.6151 27.1784 21.6595 27.0682 21.6594C26.9581 21.6592 26.8525 21.6147 26.7747 21.5355C26.6969 21.4563 26.9995 22.4998 27.9995 21.4998L26.6543 20.3268L24.6162 20.3247L19.4995 20.9998C19.4994 21.1116 24.5775 21.4207 24.4995 21.4998C24.4216 21.5788 24.543 20.9998 23.9995 20.9998C22.4995 20.9998 23.9839 21.6119 23.9061 21.5327C23.8283 21.4535 23.7847 21.3461 23.7848 21.2342L23.7857 20.3238L21.7476 20.3217L21.7467 21.2321C21.7466 21.344 21.3961 20.9207 21.3181 20.9998C21.2402 21.0788 21.4411 21.6537 21.331 21.6536C21.2209 21.6534 21.1153 21.6089 21.0375 21.5297C20.9597 21.4505 22.4994 23.1116 22.4995 22.9998L20.9171 20.3208L18.879 20.3187L7.49951 20.4998C7.49945 20.5587 13.5347 23.7553 16.4995 23.9998C19.1643 24.2195 18.7931 21.4899 18.7562 21.5273C18.6782 21.6064 18.5725 21.6507 18.4624 21.6506C18.3523 21.6505 18.2467 21.6059 18.1689 21.5267C18.0911 21.4475 18.0475 21.3402 18.0476 21.2283L18.0485 20.3179L16.0103 20.3158L16.0094 21.2262C16.0093 21.338 15.9655 21.4453 15.8875 21.5243C15.8095 21.6034 15.7039 21.6477 15.5937 21.6476C15.4836 21.6475 15.378 21.6029 15.3002 21.5237C15.2224 21.4445 15.1788 21.3372 15.1789 21.2253L15.1798 20.3149L13.1418 20.3128L13.1408 21.2232C13.1407 21.3351 13.0969 21.4423 13.0189 21.5214C12.941 21.6004 12.8353 21.6447 12.7252 21.6446C12.615 21.6445 12.5094 21.6 12.4317 21.5208C12.3539 21.4416 12.3102 21.3342 12.3103 21.2223L12.3112 20.3119L10.2732 20.3098L9.99951 21.6536C9.9994 21.7654 10.2283 21.4394 10.1503 21.5184C10.0724 21.5974 10.3832 20.4061 10.2731 20.4059C10.1629 20.4058 9.52045 20.3881 9.44265 20.3089C9.36486 20.2297 9.44162 21.3312 9.44174 21.2193L9.44265 20.3089L7.40457 20.3068L6.99951 20.3097C7.07747 20.2307 6.9994 20.4216 6.99951 20.3097C7.10964 20.3098 6.92156 20.3887 6.99951 20.3097C7.07731 20.3889 6.88938 20.3096 6.99951 20.3097C6.9994 20.4216 6.92172 20.2305 6.99951 20.3097L6.57406 20.306L4.53592 20.3039C4.45796 20.3829 4.33275 20.3032 4.22261 20.3031L4.4995 20.4999C4.53592 20.4999 4.5358 20.4157 4.53592 20.3039L3.7054 20.303L1.4995 20.3007C1.95666 21.4402 2.66836 22.3079 3.55252 22.7845C5.48643 23.8271 6.49306 24.4654 6.98343 25.272C7.49093 26.1069 7.41304 27.0362 7.28401 28.5759C7.26384 28.8169 7.24198 29.0751 7.22094 29.3527C6.76697 35.3049 8.31533 39.2243 9.91542 40.9078C9.91542 40.9078 9.97799 40.9718 10.2151 41.0549C10.5849 41.1845 10.9899 41.0172 11.1368 40.6739C11.1962 40.5347 11.213 40.3805 11.1848 40.2314C11.1827 40.22 11.1811 40.2085 11.1799 40.1969C11.0409 38.5233 11.0455 36.8405 11.1937 35.1677C11.5181 31.4183 12.4892 28.5217 14.08 26.5586C14.2906 26.3029 14.5541 26.0977 14.8518 25.9577C15.1495 25.8176 15.4739 25.746 15.802 25.7482C16.1301 25.7503 16.4536 25.8261 16.7495 25.9701C17.0454 26.1141 17.3062 26.3227 17.5135 26.5811C19.0697 28.5579 20.015 31.4564 20.3232 35.1953C20.4642 36.8625 20.4642 38.539 20.323 40.2062C20.3218 40.2178 20.3201 40.2294 20.318 40.2409C20.2896 40.3899 20.306 40.5441 20.3652 40.6835C20.5114 41.0271 20.9158 41.1956 21.286 41.0664C21.5234 40.9838 21.5861 40.9199 21.5861 40.9199C23.1899 39.2399 24.7461 35.3236 24.3038 29.3704C24.2833 29.0941 24.2623 28.8369 24.2427 28.5969C24.1168 27.0563 24.0409 26.1265 24.5501 25.2925C25.0446 24.4837 26.0094 23.8729 27.9854 22.8101Z" fill="white"/>
<path d="M7 15C7 14.4477 7.44772 14 8 14H24C24.5523 14 25 14.4477 25 15V24C25 24.5523 24.5523 25 24 25H8C7.44772 25 7 24.5523 7 24V15Z" fill="white"/>
</g>
<defs>
<clipPath id="clip0">
<rect width="31" height="42" fill="white"/>
</clipPath>
</defs>
</svg>
