<svg width="11" height="14" viewBox="0 0 11 14" fill="none" xmlns="http://www.w3.org/2000/svg">
<path d="M10.25 5.10714C10.25 4.48336 10.1271 3.86569 9.88843 3.28939C9.64972 2.71309 9.29983 2.18946 8.85876 1.74838C8.41768 1.3073 7.89404 0.957418 7.31775 0.718708C6.74145 0.479998 6.12378 0.357136 5.5 0.357136C4.87622 0.357136 4.25855 0.479998 3.68225 0.718708C3.10596 0.957418 2.58232 1.3073 2.14124 1.74838C1.70016 2.18946 1.35028 2.71309 1.11157 3.28939C0.872862 3.86569 0.75 4.48336 0.75 5.10714C0.75 6.04832 1.02821 6.92367 1.49982 7.66196H1.49439C3.09582 10.1693 5.5 13.9286 5.5 13.9286L9.50561 7.66196H9.50086C9.98971 6.89949 10.2497 6.01285 10.25 5.10714V5.10714ZM5.5 7.14285C4.96009 7.14285 4.4423 6.92837 4.06053 6.5466C3.67876 6.16483 3.46429 5.64704 3.46429 5.10714C3.46429 4.56723 3.67876 4.04944 4.06053 3.66767C4.4423 3.2859 4.96009 3.07142 5.5 3.07142C6.0399 3.07142 6.5577 3.2859 6.93947 3.66767C7.32124 4.04944 7.53571 4.56723 7.53571 5.10714C7.53571 5.64704 7.32124 6.16483 6.93947 6.5466C6.5577 6.92837 6.0399 7.14285 5.5 7.14285Z" fill="#adadad"/>
</svg>
