<svg width="14" height="10" viewBox="0 0 14 10" fill="none" xmlns="http://www.w3.org/2000/svg">
<path d="M12.6875 0.1875H1.3125C1.07051 0.1875 0.875 0.383008 0.875 0.625V9.375C0.875 9.61699 1.07051 9.8125 1.3125 9.8125H12.6875C12.9295 9.8125 13.125 9.61699 13.125 9.375V0.625C13.125 0.383008 12.9295 0.1875 12.6875 0.1875ZM11.5828 1.67637L7.26934 5.03281C7.1627 5.11621 7.01367 5.11621 6.90703 5.03281L2.59219 1.67637C2.57592 1.66381 2.56399 1.64649 2.55807 1.62681C2.55215 1.60714 2.55253 1.58611 2.55916 1.56666C2.56579 1.54721 2.57835 1.53033 2.59506 1.51838C2.61177 1.50642 2.6318 1.5 2.65234 1.5H11.5227C11.5432 1.5 11.5632 1.50642 11.5799 1.51838C11.5967 1.53033 11.6092 1.54721 11.6158 1.56666C11.6225 1.58611 11.6229 1.60714 11.6169 1.62681C11.611 1.64649 11.5991 1.66381 11.5828 1.67637V1.67637Z" fill="#adadad"/>
</svg>
