<svg width="14" height="14" viewBox="0 0 14 14" fill="none" xmlns="http://www.w3.org/2000/svg">
<path d="M5.91909 8.02681C6.73089 8.85034 7.71315 9.48615 8.79687 9.88959L10.263 8.72292C10.3064 8.69299 10.358 8.67696 10.4108 8.67696C10.4635 8.67696 10.5151 8.69299 10.5585 8.72292L13.2808 10.4768C13.3841 10.5389 13.4716 10.6243 13.5363 10.726C13.601 10.8278 13.6412 10.9432 13.6536 11.0631C13.6661 11.1831 13.6505 11.3042 13.608 11.4171C13.5656 11.53 13.4975 11.6314 13.4091 11.7135L12.1335 12.9735C11.9509 13.154 11.7263 13.2864 11.48 13.359C11.2337 13.4316 10.9732 13.4421 10.7219 13.3896C8.21439 12.8717 5.9032 11.6588 4.05242 9.88959C2.24272 8.10274 0.990419 5.82914 0.447424 3.34459C0.393783 3.09711 0.404978 2.83998 0.479925 2.5981C0.554873 2.35623 0.69103 2.13782 0.875201 1.96403L2.19742 0.688476C2.27925 0.604393 2.37903 0.539911 2.4893 0.499856C2.59958 0.459802 2.71748 0.445214 2.83419 0.457184C2.95091 0.469154 3.0634 0.507373 3.16324 0.568978C3.26309 0.630584 3.34771 0.713979 3.41076 0.81292L5.22298 3.50014C5.25424 3.54234 5.27111 3.59346 5.27111 3.64598C5.27111 3.69849 5.25424 3.74961 5.22298 3.79181L4.02909 5.22681C4.44348 6.28884 5.0891 7.24531 5.91909 8.02681V8.02681Z" fill="#adadad"/>
</svg>
